<svg width="18" height="36" viewBox="0 0 18 36" xmlns="http://www.w3.org/2000/svg">
<path d="M0 4.00806V0.376591C0 0.0618326 0.291178 -0.111989 0.487816 0.080624L17.5348 16.6219C17.6797 16.7618 17.7969 16.941 17.8775 17.1458C17.9581 17.3505 18 17.5755 18 17.8034C18 18.0313 17.9581 18.2563 17.8775 18.461C17.7969 18.6658 17.6797 18.845 17.5348 18.9849L0.487816 35.5262C0.287395 35.7188 0 35.545 0 35.2302V31.5988C0 31.3686 0.0869751 31.1478 0.230671 31.0068L13.8441 17.8058L0.230671 4.59999C0.0869751 4.45905 0 4.23825 0 4.00806Z" fill="#3A3A3A"/>
</svg>
