<svg width="18" height="36" viewBox="0 0 18 36" fill="black" xmlns="http://www.w3.org/2000/svg">
<path d="M18 4.00806V0.376591C18 0.0618326 17.7088 -0.111989 17.5122 0.080624L0.465179 16.6219C0.320341 16.7618 0.203143 16.941 0.122525 17.1458C0.0419077 17.3505 0 17.5755 0 17.8034C0 18.0313 0.0419077 18.2563 0.122525 18.461C0.203143 18.6658 0.320341 18.845 0.465179 18.9849L17.5122 35.5262C17.7126 35.7188 18 35.545 18 35.2302V31.5988C18 31.3686 17.913 31.1478 17.7693 31.0068L4.15592 17.8058L17.7693 4.59999C17.913 4.45905 18 4.23825 18 4.00806Z" fill="#3A3A3A"/>
</svg>
